<svg width="70" height="14" viewBox="0 0 70 14" fill="none" xmlns="http://www.w3.org/2000/svg">
<path d="M65.0497 13.266C64.1497 13.266 63.3337 13.068 62.6017 12.672C61.8817 12.264 61.3117 11.712 60.8917 11.016C60.4717 10.32 60.2617 9.54 60.2617 8.676C60.2617 7.812 60.4717 7.038 60.8917 6.354C61.3117 5.67 61.8817 5.13 62.6017 4.734C63.3217 4.326 64.1377 4.122 65.0497 4.122C65.9617 4.122 66.7777 4.32 67.4977 4.716C68.2177 5.112 68.7877 5.658 69.2077 6.354C69.6277 7.038 69.8377 7.812 69.8377 8.676C69.8377 9.54 69.6277 10.32 69.2077 11.016C68.7877 11.712 68.2177 12.264 67.4977 12.672C66.7777 13.068 65.9617 13.266 65.0497 13.266ZM65.0497 10.764C65.4457 10.764 65.7937 10.68 66.0937 10.512C66.3937 10.332 66.6217 10.086 66.7777 9.774C66.9457 9.45 67.0297 9.084 67.0297 8.676C67.0297 8.268 66.9457 7.914 66.7777 7.614C66.6097 7.302 66.3757 7.062 66.0757 6.894C65.7877 6.714 65.4457 6.624 65.0497 6.624C64.6657 6.624 64.3237 6.714 64.0237 6.894C63.7237 7.062 63.4897 7.302 63.3217 7.614C63.1537 7.926 63.0697 8.286 63.0697 8.694C63.0697 9.09 63.1537 9.45 63.3217 9.774C63.4897 10.086 63.7237 10.332 64.0237 10.512C64.3237 10.68 64.6657 10.764 65.0497 10.764Z" fill="#131313"/>
<path d="M56.1445 13.068V0H58.8985V13.068H56.1445Z" fill="#131313"/>
<path d="M50.3306 13.266C49.5266 13.266 48.8126 13.104 48.1886 12.78C47.5766 12.444 47.0966 11.988 46.7486 11.412C46.4006 10.824 46.2266 10.152 46.2266 9.396V4.32H48.9806V9.36C48.9806 9.66 49.0286 9.918 49.1246 10.134C49.2326 10.35 49.3886 10.518 49.5926 10.638C49.7966 10.758 50.0426 10.818 50.3306 10.818C50.7386 10.818 51.0626 10.692 51.3026 10.44C51.5426 10.176 51.6626 9.816 51.6626 9.36V4.32H54.4166V9.378C54.4166 10.146 54.2426 10.824 53.8946 11.412C53.5466 11.988 53.0666 12.444 52.4546 12.78C51.8426 13.104 51.1346 13.266 50.3306 13.266Z" fill="#131313"/>
<path d="M41.7396 13.266C40.8396 13.266 40.0236 13.068 39.2916 12.672C38.5596 12.276 37.9836 11.73 37.5636 11.034C37.1436 10.338 36.9336 9.558 36.9336 8.694C36.9336 7.818 37.1436 7.038 37.5636 6.354C37.9956 5.658 38.5776 5.112 39.3096 4.716C40.0416 4.32 40.8636 4.122 41.7756 4.122C42.4596 4.122 43.0836 4.242 43.6476 4.482C44.2236 4.71 44.7336 5.058 45.1776 5.526L43.4136 7.29C43.2096 7.062 42.9696 6.894 42.6936 6.786C42.4296 6.678 42.1236 6.624 41.7756 6.624C41.3796 6.624 41.0256 6.714 40.7136 6.894C40.4136 7.062 40.1736 7.302 39.9936 7.614C39.8256 7.914 39.7416 8.268 39.7416 8.676C39.7416 9.084 39.8256 9.444 39.9936 9.756C40.1736 10.068 40.4196 10.314 40.7316 10.494C41.0436 10.674 41.3916 10.764 41.7756 10.764C42.1356 10.764 42.4536 10.704 42.7296 10.584C43.0176 10.452 43.2636 10.272 43.4676 10.044L45.2136 11.808C44.7576 12.288 44.2416 12.654 43.6656 12.906C43.0896 13.146 42.4476 13.266 41.7396 13.266Z" fill="#131313"/>
<path d="M30.0742 13.068V4.32H32.8282V13.068H30.0742ZM32.8282 8.262L31.6762 7.362C31.9042 6.342 32.2882 5.55 32.8282 4.986C33.3682 4.422 34.1182 4.14 35.0782 4.14C35.4982 4.14 35.8642 4.206 36.1762 4.338C36.5002 4.458 36.7822 4.65 37.0222 4.914L35.3842 6.984C35.2642 6.852 35.1142 6.75 34.9342 6.678C34.7542 6.606 34.5502 6.57 34.3222 6.57C33.8662 6.57 33.5002 6.714 33.2242 7.002C32.9602 7.278 32.8282 7.698 32.8282 8.262Z" fill="#131313"/>
<path d="M25.3814 13.068V4.32H28.1354V13.068H25.3814ZM26.7674 3.114C26.3354 3.114 25.9754 2.97 25.6874 2.682C25.4114 2.382 25.2734 2.022 25.2734 1.602C25.2734 1.17 25.4114 0.810004 25.6874 0.522004C25.9754 0.234004 26.3354 0.090004 26.7674 0.090004C27.1994 0.090004 27.5534 0.234004 27.8294 0.522004C28.1054 0.810004 28.2434 1.17 28.2434 1.602C28.2434 2.022 28.1054 2.382 27.8294 2.682C27.5534 2.97 27.1994 3.114 26.7674 3.114Z" fill="#131313"/>
<path d="M19.2522 13.266C18.3042 13.266 17.4222 13.104 16.6062 12.78C15.8022 12.444 15.0942 11.976 14.4822 11.376C13.8822 10.776 13.4142 10.08 13.0782 9.288C12.7422 8.484 12.5742 7.62 12.5742 6.696C12.5742 5.772 12.7422 4.914 13.0782 4.122C13.4142 3.318 13.8822 2.622 14.4822 2.034C15.0822 1.446 15.7842 0.990002 16.5882 0.666003C17.4042 0.330003 18.2862 0.162003 19.2342 0.162003C20.2422 0.162003 21.1362 0.324002 21.9162 0.648002C22.7082 0.972002 23.3982 1.416 23.9862 1.98L22.0962 3.888C21.7602 3.528 21.3522 3.246 20.8722 3.042C20.4042 2.838 19.8582 2.736 19.2342 2.736C18.6822 2.736 18.1722 2.832 17.7042 3.024C17.2482 3.204 16.8522 3.468 16.5162 3.816C16.1922 4.164 15.9342 4.584 15.7422 5.076C15.5622 5.568 15.4722 6.108 15.4722 6.696C15.4722 7.296 15.5622 7.842 15.7422 8.334C15.9342 8.826 16.1922 9.246 16.5162 9.594C16.8522 9.942 17.2482 10.212 17.7042 10.404C18.1722 10.596 18.6822 10.692 19.2342 10.692C19.8822 10.692 20.4462 10.59 20.9262 10.386C21.4062 10.182 21.8202 9.9 22.1682 9.54L24.0762 11.448C23.4642 12.012 22.7622 12.456 21.9702 12.78C21.1902 13.104 20.2842 13.266 19.2522 13.266Z" fill="#131313"/>
<path d="M9 6.5C9 8.98528 6.98528 11 4.5 11C2.01472 11 0 8.98528 0 6.5C0 4.01472 2.01472 2 4.5 2C6.98528 2 9 4.01472 9 6.5ZM0.640891 6.5C0.640891 8.63133 2.36867 10.3591 4.5 10.3591C6.63133 10.3591 8.35911 8.63133 8.35911 6.5C8.35911 4.36867 6.63133 2.64089 4.5 2.64089C2.36867 2.64089 0.640891 4.36867 0.640891 6.5Z" fill="#131313"/>
<circle cx="4.5" cy="6.5" r="2.5" fill="#131313"/>
</svg>
